<?xml version="1.0" encoding="utf-8"?>
<svg version="1.1" id="Camada_1" xmlns="http://www.w3.org/2000/svg" xmlns:xlink="http://www.w3.org/1999/xlink" x="0px" y="0px"
	 viewBox="0 0 800 600" style="enable-background:new 200 150 400 300; fill: #fff" xml:space="preserve">
<g>
	<path d="M321.49,253h-8.99c-24.03,0-43.51,19.1-43.51,42.65v14.69c0,23.56,19.48,42.65,43.51,42.65h8.99
		c24.03,0,43.51-19.1,43.51-42.65v-14.69C365,272.1,345.52,253,321.49,253z M331.5,310.84c0,7.85-6.49,14.22-14.5,14.22
		s-14.5-6.36-14.5-14.22v-15.69c0-7.85,6.49-14.22,14.5-14.22s14.5,6.36,14.5,14.22V310.84z"/>
	<polygon points="82,285 123,285 130,257 48,257 48,353 81,353 81,327 110,327 119,300 82,300 	"/>
	<polygon points="208,257 193,297 180,257 139,257 121,353 158.5,352.5 165.5,301.5 180.5,352.5 206.5,352.5 224.5,301.5 228.5,353 
		265,353 247,257 	"/>
	<polygon points="440,255 440,297 407,255 374,255 374,353 407.5,353.5 407.5,305.5 441.5,353 473,353 473,255 	"/>
</g>
<g>
	<path d="M632.08,280.79h-12.99c-0.33,0-0.61,0.29-0.61,0.65v15.67c0,0.36,0.27,0.65,0.61,0.65h12.72c4.22,0,7.91-3.41,8.18-7.92
		C640.29,284.9,636.64,280.79,632.08,280.79z"/>
	<path d="M561.98,286.56c-5.5,0-9.96,4.46-9.96,9.95v10.98c0,5.5,4.46,9.95,9.96,9.95s9.96-4.46,9.96-9.95v-10.98
		C571.94,291.01,567.48,286.56,561.98,286.56z"/>
	<path d="M490,255v98h253l10-19v-79H490z M510,337c-5.52,0-10-4.48-10-10c0-5.52,4.48-10,10-10s10,4.48,10,10
		C520,332.52,515.52,337,510,337z M592,307.14c0,16.49-12.78,29.86-28.55,29.86h-5.9c-15.77,0-28.55-13.37-28.55-29.86v-10.28
		c0-16.49,12.78-29.86,28.55-29.86h5.9c15.77,0,28.55,13.37,28.55,29.86V307.14z M657.5,289.27c0,9.67-5.76,17.87-13.81,20.95
		L657.5,337h-20.82l-13.13-25.45h-4.72V337H601v-25.45V267h17.84h17.84C648.18,267,657.5,276.97,657.5,289.27L657.5,289.27z
		 M697.32,321h5.54c5.05,0,9.14-4.09,9.14-9.14v0c0-2.13-1.73-3.86-3.86-3.86H693l6-15h30v33c-3,6-15.59,11-25,11h-11.05
		c-16.54,0-29.95-13.41-29.95-29.95v-10.11c0-16.54,13.41-29.95,29.95-29.95H729l-6.73,16.36c-0.16,0.39-0.54,0.64-0.96,0.64h-23.98
		c-7.36,0-13.32,5.97-13.32,13.32v10.35C684,315.03,689.97,321,697.32,321z"/>
</g>
</svg>